<svg xmlns="http://www.w3.org/2000/svg" width="1em" height="1em" viewBox="0 0 64 64">
  <defs>
    <linearGradient id="email-g" x1="12" x2="52" y1="16" y2="50" gradientUnits="userSpaceOnUse">
      <stop stop-color="#38BDF8"/>
      <stop offset="1" stop-color="#2563EB"/>
    </linearGradient>
  </defs>
  <rect x="8" y="14" width="48" height="36" rx="9" fill="url(#email-g)"/>
  <path fill="#fff" d="M14 23.5c0-1 .8-1.5 1.7-.9L32 34l16.3-11.4c.9-.6 1.7-.1 1.7.9v3.1L33.7 38a3 3 0 0 1-3.4 0L14 26.6z"/>
  <path fill="#DDEBFF" d="m14 42.2 12.9-9 3.4 2.4a3 3 0 0 0 3.4 0l3.4-2.4 12.9 9V43a3 3 0 0 1-3 3H17a3 3 0 0 1-3-3z"/>
</svg>
